<svg xmlns="http://www.w3.org/2000/svg" viewBox="0 0 64 64" fill="none">
  <rect width="64" height="64" rx="14" fill="#DBEAFE"/>
  <path fill="#1D4ED8" d="M31.06 13.9c.46-1.42 2.41-1.42 2.87 0l3.13 9.63c.21.64.8 1.08 1.47 1.08h10.12c1.5 0 2.12 1.92.91 2.79l-8.19 5.95a1.6 1.6 0 00-.58 1.78l3.13 9.63c.46 1.42-1.16 2.6-2.36 1.71l-8.19-5.95a1.6 1.6 0 00-1.89 0l-8.19 5.95c-1.2.87-2.82-.29-2.36-1.71l3.13-9.63a1.6 1.6 0 00-.58-1.78l-8.19-5.95c-1.2-.87-.59-2.79.91-2.79h10.12c.67 0 1.26-.43 1.47-1.08l3.13-9.63z"/>
</svg>
